<svg viewBox="0 0 369.91 56.2" class="css-1j8o68f" xmlns="http://www.w3.org/2000/svg"><g xmlns="http://www.w3.org/2000/svg" fill="#00b894"><path d="M48.42 17.45c-.65-1.44-4.62-2.69-4.62-2.69-1.48-.52-1.93-1.04-2.07-1.3a1.1 1.1 0 0 1-.04-.1l-.02-.09c-.06-.2-.2-.73-.2-.86l-.02.12a2.77 2.77 0 0 1-.01-.41l-.03.03c.49-.63.89-1.35 1.15-2.08a3.9 3.9 0 0 0 .68-1.55c.3-.84.21-1.27.08-1.48.04-.13.76-2.35-.26-4.07 0 0-.36-1.62-2.27-2.34-1.77-1.09-4.4-.44-4.4-.44-3.2.54-3.9 4.32-3.9 4.32-.19 1.72.28 2.8.3 2.85-.17.4.13 1.47.13 1.47.1.65.42.85.51.9A7.4 7.4 0 0 0 34.52 12s.05.26 0 .63l-.01-.06c0 .15-.18.7-.2.78h-.01c-.15.2-.3.39-.45.55-1.2.93-4.07 1.8-4.07 1.8A4.13 4.13 0 0 0 28 16.9c-1.85 2.74-2.06 5.48-2.06 5.48.02 1.4.62 1.54.62 1.54 4.26 1.9 11.03 2 11.03 2 6.85.15 11.74-1.71 11.74-1.71.72-.46.74-.82.74-.82.51-4.38-1.65-5.94-1.65-5.94z"/><path fill="none" d="M38.04 42.02z"/><path d="m51 46.14-11.23-5.23V28.53h-3.46v12.38L25.1 46.14l1.47 3.14 11.48-5.36 11.5 5.36L51 46.14zm-12.96-4.12zm-15.56 5.69c-.65-1.44-4.62-2.69-4.62-2.69-1.48-.52-1.93-1.04-2.07-1.3a1.12 1.12 0 0 1-.04-.1l-.02-.09c-.05-.2-.2-.73-.2-.86l-.02.11a2.9 2.9 0 0 1 0-.4s-.02 0-.04.03c.49-.63.89-1.35 1.15-2.08.45-.45.69-1.55.69-1.55.3-.84.2-1.27.07-1.48.04-.13.76-2.36-.26-4.07 0 0-.36-1.62-2.27-2.35-1.76-1.08-4.4-.43-4.4-.43-3.2.54-3.9 4.32-3.9 4.32-.18 1.72.28 2.8.3 2.84-.17.41.13 1.48.13 1.48.1.65.42.85.52.9.22.8.6 1.6 1.09 2.28l-.01-.02s.05.27 0 .64v-.06c0 .15-.2.7-.22.77v.02a9 9 0 0 1-.44.54c-1.2.92-4.07 1.8-4.07 1.8a4.13 4.13 0 0 0-1.78 1.2C.22 49.9 0 52.64 0 52.64c.02 1.4.63 1.54.63 1.54 4.25 1.9 11.02 2 11.02 2 6.85.15 11.74-1.71 11.74-1.71.73-.46.75-.82.75-.82.5-4.38-1.66-5.94-1.66-5.94zm51.87 0c-.65-1.44-4.61-2.69-4.61-2.69-1.48-.52-1.93-1.04-2.07-1.3a.88.88 0 0 1-.04-.1l-.02-.09c-.06-.2-.2-.73-.2-.86l-.03.11a2.76 2.76 0 0 1 0-.4l-.04.03c.5-.63.9-1.35 1.16-2.08a3.9 3.9 0 0 0 .68-1.55c.3-.84.21-1.27.08-1.48.04-.13.76-2.36-.26-4.07 0 0-.36-1.62-2.27-2.35-1.77-1.08-4.4-.43-4.4-.43-3.21.54-3.9 4.32-3.9 4.32a5.7 5.7 0 0 0 .3 2.84c-.17.41.12 1.48.12 1.48.1.65.43.85.52.9.22.8.6 1.6 1.1 2.28l-.02-.02s.06.27 0 .64v-.06c0 .15-.19.7-.21.77v.02a9 9 0 0 1-.45.54c-1.2.92-4.07 1.8-4.07 1.8a4.14 4.14 0 0 0-1.78 1.2c-1.85 2.74-2.07 5.48-2.07 5.48.03 1.4.63 1.54.63 1.54 4.25 1.9 11.03 2 11.03 2a34.02 34.02 0 0 0 11.73-1.72c.73-.45.75-.81.75-.81.5-4.38-1.66-5.94-1.66-5.94z"/></g><path d="M103.93 45.99q-3.66-2.06-5.8-5.58T96 32.73q0-4.11 2.13-7.64t5.8-5.57 7.98-2.06 8 2.06 5.85 5.57 2.16 7.64q0 4.16-2.16 7.68T119.9 46t-8 2.05-7.98-2.05zm3.92-20.44q-1.87 1.1-2.94 2.99t-1.06 4.19q0 2.4 1.04 4.3t2.88 2.98 4.14 1.1q2.24 0 4.08-1.1t2.9-3.01 1.07-4.27q0-2.3-1.06-4.2t-2.91-2.98-4.08-1.1q-2.2 0-4.06 1.1zm25.94-5.05-1.02-12.22h8.28l-.91 12.22h-6.35zm37.97.22q2.75 3.25 2.75 9.28v17.35h-8.16V30q0-5.92-5.66-5.92-2.19 0-3.95 1.73t-1.66 6v15.54h-7.95V17.99h7.95v2.62q1.45-1.44 3.63-2.3t4.22-.85q6.09 0 8.83 3.26zm18.04 25.94q-3.65-1.44-6.27-4.89t-2.61-9 2.64-8.96 6.32-4.85 7-1.45q3.84 0 7.3 1.71t5.7 5.02 2.31 7.85q0 1.38-.05 2.4t-.1 1.28h-23.17q.64 3.1 3.2 4.21t4.8 1.13q2.89 0 4.6-1.05t2.93-2.37l6.2 3.58q-5.02 6.83-13.72 6.83-3.42 0-7.08-1.44zm1.63-20.53q-2.08 1.63-2.35 3.98h14.68q-.16-1.39-1.07-2.67t-2.42-2.1-3.45-.83q-3.3 0-5.39 1.62zm37.1 10.76q0 1.87.64 3.12t2.99 1.26q1.06 0 2.02-.11v6.72q-1.92.22-3.57.22-3.42 0-5.53-.56t-3.28-2.16-1.17-4.6V24.52h-3.58v-7h3.58V9.67h7.9v7.84h5.87v7h-5.87v12.38zm8.59-18.79h8.49l4.9 13.02 7.1-14.62 7.21 14.68 5.07-13.08h8.43l-12.6 30.48-8.1-15.59-8.01 15.59zM288.49 46q-3.65-2.06-5.79-5.58t-2.13-7.68q0-4.11 2.13-7.64t5.8-5.57 7.97-2.06 8 2.06 5.85 5.57 2.16 7.64q0 4.16-2.16 7.68T304.48 46t-8 2.05-7.99-2.05zm3.92-20.44q-1.86 1.1-2.93 2.99t-1.07 4.19q0 2.4 1.04 4.3t2.88 2.98 4.14 1.1q2.24 0 4.08-1.1t2.91-3.01 1.07-4.27q0-2.3-1.07-4.2t-2.9-2.98-4.09-1.1q-2.19 0-4.06 1.1zm40.57.1q-2.3.56-4.22 2.65t-1.92 6.08v12.97h-7.95V17.99h7.95v3.9q1.98-2.61 4.83-3.55t5.2-.88v7.8q-1.6-.17-3.9.4zM349.68 7v23.48l9.99-12.32h9.76l-11.8 13.66 12.28 15.53h-9.66l-7.68-9.6-2.89 3.3v6.3h-8V7h8z" fill="#6e7681"/></svg>
