<!DOCTYPE svg PUBLIC "-//W3C//DTD SVG 1.1//EN" "http://www.w3.org/Graphics/SVG/1.1/DTD/svg11.dtd">
<svg width="397.8" height="60.43324381150354" viewBox="0 0 369.9130434782609 56.19669468470852" class="css-1j8o68f" xmlns="http://www.w3.org/2000/svg"><defs id="SvgjsDefs14971"></defs><g id="SvgjsG14972" featurekey="v37d4h-0" transform="matrix(0.864592948530896,0,0,0.864592948530896,-5.185828630618407,-15.131629900226203)" fill="#00b894"><g xmlns="http://www.w3.org/2000/svg"><path d="M61.997,37.688c-0.751-1.669-5.339-3.115-5.339-3.115c-1.714-0.604-2.234-1.205-2.394-1.514   c-0.019-0.037-0.033-0.07-0.045-0.099c0-0.005,0-0.01,0-0.014c0,0-0.011-0.037-0.025-0.096V32.85c0,0.001-0.002,0.001-0.002,0.001   c-0.064-0.237-0.229-0.845-0.229-0.994c0,0-0.009,0.049-0.027,0.133c-0.014-0.146-0.017-0.305-0.008-0.474   c0,0-0.014,0.016-0.039,0.043c0.567-0.729,1.029-1.563,1.336-2.409c0.521-0.521,0.789-1.791,0.789-1.791   c0.346-0.971,0.244-1.467,0.086-1.717c0.049-0.147,0.881-2.721-0.295-4.706c0,0-0.418-1.877-2.628-2.711   c-2.044-1.251-5.089-0.5-5.089-0.5c-3.711,0.625-4.506,4.992-4.506,4.992c-0.221,1.994,0.313,3.24,0.335,3.292   c-0.19,0.472,0.155,1.706,0.155,1.706c0.119,0.753,0.487,0.982,0.594,1.034c0.258,0.937,0.704,1.849,1.266,2.641   c-0.003-0.004-0.007-0.008-0.012-0.012c0,0,0.062,0.306,0.005,0.733c-0.008-0.044-0.013-0.068-0.013-0.068   c0,0.175-0.212,0.813-0.24,0.896c-0.002,0.005-0.004,0.009-0.006,0.014c-0.172,0.229-0.344,0.438-0.514,0.629   c-1.383,1.067-4.706,2.077-4.706,2.077c-1.446,0.557-2.058,1.391-2.058,1.391c-2.141,3.17-2.391,6.338-2.391,6.338   c0.028,1.611,0.723,1.778,0.723,1.778c4.922,2.196,12.753,2.325,12.753,2.325c7.926,0.168,13.579-1.992,13.579-1.992   c0.839-0.527,0.862-0.943,0.862-0.943C64.499,39.492,61.997,37.688,61.997,37.688z"></path><g><polygon fill="none" points="50,66.097 50,66.097 50,66.098   "></polygon><path d="M64.979,70.873l-12.979-6.051V50.503h-4v14.319l-12.978,6.051l1.69,3.625L50,68.304l13.287,6.194L64.979,70.873z     M50,66.097L50,66.097L50,66.097L50,66.097z"></path></g><path d="M31.997,72.688c-0.751-1.669-5.339-3.114-5.339-3.114c-1.713-0.604-2.234-1.205-2.394-1.515   c-0.018-0.037-0.032-0.069-0.044-0.1c0-0.005,0-0.009,0-0.015c0,0-0.011-0.035-0.026-0.094c0-0.002,0-0.002,0-0.002h-0.001   c-0.065-0.238-0.229-0.844-0.229-0.994c0,0-0.009,0.049-0.028,0.133c-0.013-0.147-0.016-0.305-0.007-0.473   c0,0-0.014,0.014-0.04,0.043c0.568-0.729,1.03-1.563,1.337-2.41c0.521-0.521,0.788-1.789,0.788-1.789   c0.347-0.972,0.245-1.468,0.086-1.718c0.049-0.147,0.881-2.721-0.295-4.705c0,0-0.417-1.878-2.627-2.712   c-2.044-1.251-5.089-0.5-5.089-0.5c-3.711,0.625-4.506,4.992-4.506,4.992c-0.221,1.994,0.313,3.24,0.335,3.291   c-0.19,0.473,0.155,1.707,0.155,1.707c0.119,0.753,0.487,0.98,0.594,1.033c0.258,0.937,0.704,1.849,1.266,2.64   c-0.003-0.004-0.007-0.006-0.012-0.012c0,0,0.062,0.307,0.005,0.735c-0.008-0.045-0.013-0.07-0.013-0.07   c0,0.177-0.212,0.814-0.24,0.896c-0.002,0.006-0.004,0.008-0.006,0.014c-0.172,0.229-0.344,0.438-0.514,0.631   c-1.383,1.066-4.706,2.076-4.706,2.076C9,71.215,8.389,72.049,8.389,72.049c-2.141,3.17-2.391,6.338-2.391,6.338   c0.028,1.611,0.723,1.779,0.723,1.779c4.922,2.195,12.753,2.324,12.753,2.324c7.925,0.168,13.579-1.992,13.579-1.992   c0.838-0.527,0.862-0.943,0.862-0.943C34.499,74.492,31.997,72.688,31.997,72.688z"></path><path d="M91.997,72.688c-0.751-1.669-5.339-3.114-5.339-3.114c-1.714-0.604-2.234-1.205-2.394-1.515   c-0.019-0.037-0.033-0.069-0.045-0.1c0-0.005,0-0.009,0-0.015c0,0-0.011-0.035-0.025-0.094c0-0.002,0-0.002,0-0.002h-0.002   c-0.064-0.238-0.229-0.844-0.229-0.994c0,0-0.009,0.049-0.027,0.133c-0.014-0.147-0.017-0.305-0.008-0.473   c0,0-0.014,0.014-0.039,0.043c0.567-0.729,1.029-1.563,1.336-2.41c0.521-0.521,0.789-1.789,0.789-1.789   c0.346-0.972,0.244-1.468,0.086-1.718c0.049-0.147,0.881-2.721-0.295-4.705c0,0-0.418-1.878-2.627-2.712   c-2.045-1.251-5.09-0.5-5.09-0.5c-3.712,0.625-4.507,4.992-4.507,4.992c-0.222,1.994,0.313,3.24,0.336,3.291   c-0.19,0.473,0.153,1.707,0.153,1.707c0.119,0.753,0.488,0.98,0.595,1.033c0.259,0.937,0.705,1.849,1.267,2.64   c-0.004-0.004-0.008-0.006-0.013-0.012c0,0,0.063,0.307,0.006,0.735c-0.009-0.045-0.014-0.07-0.014-0.07   c0,0.177-0.212,0.814-0.239,0.896c-0.002,0.006-0.004,0.008-0.007,0.014c-0.172,0.229-0.345,0.438-0.515,0.631   c-1.383,1.066-4.705,2.076-4.705,2.076c-1.446,0.557-2.059,1.391-2.059,1.391c-2.141,3.17-2.391,6.338-2.391,6.338   c0.027,1.611,0.723,1.779,0.723,1.779c4.922,2.195,12.754,2.324,12.754,2.324c7.924,0.168,13.578-1.992,13.578-1.992   c0.838-0.527,0.862-0.943,0.862-0.943C94.499,74.492,91.997,72.688,91.997,72.688z"></path></g></g><g id="SvgjsG14973" featurekey="UxBHKT-0" transform="matrix(2.668677368541429,0,0,2.668677368541429,93.70493790207533,-6.023145863888061)" fill="#6e7681"><path d="M3.83 19.49 q-1.37 -0.77 -2.17 -2.09 t-0.8 -2.88 q0 -1.54 0.8 -2.86 t2.17 -2.09 t2.99 -0.77 t3 0.77 t2.19 2.09 t0.81 2.86 q0 1.56 -0.81 2.88 t-2.19 2.09 t-3 0.77 t-2.99 -0.77 z M5.3 11.83 q-0.7 0.41 -1.1 1.12 t-0.4 1.57 q0 0.9 0.39 1.61 t1.08 1.12 t1.55 0.41 q0.84 0 1.53 -0.41 t1.09 -1.13 t0.4 -1.6 q0 -0.86 -0.4 -1.57 t-1.09 -1.12 t-1.53 -0.41 q-0.82 0 -1.52 0.41 z M15.020000000000001 9.94 l-0.38 -4.58 l3.1 0 l-0.34 4.58 l-2.38 0 z M29.25 10.02 q1.03 1.22 1.03 3.48 l0 6.5 l-3.06 0 l0 -6.5 q0 -2.22 -2.12 -2.22 q-0.82 0 -1.48 0.65 t-0.62 2.25 l0 5.82 l-2.98 0 l0 -11 l2.98 0 l0 0.98 q0.54 -0.54 1.36 -0.86 t1.58 -0.32 q2.28 0 3.31 1.22 z M36.01 19.74 q-1.37 -0.54 -2.35 -1.83 t-0.98 -3.37 t0.99 -3.36 t2.37 -1.82 t2.62 -0.54 q1.44 0 2.74 0.64 t2.13 1.88 t0.87 2.94 q0 0.52 -0.02 0.9 t-0.04 0.48 l-8.68 0 q0.24 1.16 1.2 1.58 t1.8 0.42 q1.08 0 1.72 -0.39 t1.1 -0.89 l2.32 1.34 q-1.88 2.56 -5.14 2.56 q-1.28 0 -2.65 -0.54 z M36.62 12.05 q-0.78 0.61 -0.88 1.49 l5.5 0 q-0.06 -0.52 -0.4 -1 t-0.91 -0.79 t-1.29 -0.31 q-1.24 0 -2.02 0.61 z M50.519999999999996 16.08 q0 0.7 0.24 1.17 t1.12 0.47 q0.4 0 0.76 -0.04 l0 2.52 q-0.72 0.08 -1.34 0.08 q-1.28 0 -2.07 -0.21 t-1.23 -0.81 t-0.44 -1.72 l0 -6.1 l-1.34 0 l0 -2.62 l1.34 0 l0 -2.94 l2.96 0 l0 2.94 l2.2 0 l0 2.62 l-2.2 0 l0 4.64 z M53.74 9.04 l3.18 0 l1.84 4.88 l2.66 -5.48 l2.7 5.5 l1.9 -4.9 l3.16 0 l-4.72 11.42 l-3.04 -5.84 l-3 5.84 z M72.99000000000001 19.49 q-1.37 -0.77 -2.17 -2.09 t-0.8 -2.88 q0 -1.54 0.8 -2.86 t2.17 -2.09 t2.99 -0.77 t3 0.77 t2.19 2.09 t0.81 2.86 q0 1.56 -0.81 2.88 t-2.19 2.09 t-3 0.77 t-2.99 -0.77 z M74.46000000000001 11.83 q-0.7 0.41 -1.1 1.12 t-0.4 1.57 q0 0.9 0.39 1.61 t1.08 1.12 t1.55 0.41 q0.84 0 1.53 -0.41 t1.09 -1.13 t0.4 -1.6 q0 -0.86 -0.4 -1.57 t-1.09 -1.12 t-1.53 -0.41 q-0.82 0 -1.52 0.41 z M89.66000000000001 11.87 q-0.86 0.21 -1.58 0.99 t-0.72 2.28 l0 4.86 l-2.98 0 l0 -11 l2.98 0 l0 1.46 q0.74 -0.98 1.81 -1.33 t1.95 -0.33 l0 2.92 q-0.6 -0.06 -1.46 0.15 z M95.92000000000002 4.880000000000001 l0 8.8 l3.74 -4.62 l3.66 0 l-4.42 5.12 l4.6 5.82 l-3.62 0 l-2.88 -3.6 l-1.08 1.24 l0 2.36 l-3 0 l0 -15.12 l3 0 z"></path></g></svg>
