<?xml version="1.0" standalone="no"?>
<!DOCTYPE svg PUBLIC "-//W3C//DTD SVG 20010904//EN"
 "http://www.w3.org/TR/2001/REC-SVG-20010904/DTD/svg10.dtd">
<svg version="1.0" xmlns="http://www.w3.org/2000/svg"
 width="1312.000000pt" height="1312.000000pt" viewBox="0 0 1312.000000 1312.000000"
 preserveAspectRatio="xMidYMid meet">
<metadata>
Created by potrace 1.14, written by Peter Selinger 2001-2017
</metadata>
<g transform="translate(0.000000,1312.000000) scale(0.100000,-0.100000)"
fill="#000000" stroke="none">
<path d="M6410 11389 c-30 -5 -71 -11 -90 -14 -19 -2 -62 -12 -95 -20 -33 -9
-64 -18 -70 -19 -5 -1 -16 -5 -22 -9 -7 -5 -13 -5 -13 0 0 4 -4 4 -8 -2 -4 -5
-32 -23 -62 -39 -60 -32 -151 -103 -190 -150 -14 -16 -33 -37 -42 -45 -10 -9
-18 -21 -18 -28 0 -7 -4 -13 -8 -13 -5 0 -15 -12 -23 -27 -8 -16 -16 -30 -20
-33 -13 -12 -107 -216 -114 -248 -2 -9 -10 -37 -18 -62 -7 -25 -13 -55 -12
-68 1 -12 -1 -22 -4 -22 -3 0 -6 -49 -6 -110 0 -60 2 -110 5 -110 3 0 6 -19 7
-43 3 -47 22 -137 33 -152 4 -5 7 -48 8 -95 0 -88 30 -238 57 -290 8 -16 26
-40 39 -52 13 -13 29 -41 36 -63 6 -22 15 -49 20 -60 35 -82 69 -151 108 -214
31 -51 45 -86 46 -114 2 -37 -14 -120 -31 -157 -3 -8 -5 -19 -4 -23 1 -4 -4
-14 -11 -21 -7 -7 -26 -29 -42 -49 -44 -55 -151 -120 -311 -188 -38 -17 -79
-34 -90 -40 -22 -10 -50 -20 -248 -89 -271 -95 -368 -175 -492 -405 -20 -38
-40 -74 -43 -80 -4 -5 -7 -12 -8 -15 -1 -8 -20 -51 -42 -100 -41 -88 -100
-261 -117 -345 -3 -11 -8 -33 -12 -50 -4 -16 -8 -38 -9 -47 -1 -10 -2 -19 -4
-20 -14 -18 -20 -199 -7 -215 5 -7 7 -13 4 -13 -8 0 18 -73 38 -107 12 -20 36
-39 60 -49 22 -8 54 -22 70 -29 90 -40 305 -108 305 -97 0 4 4 2 8 -5 4 -6 21
-13 37 -16 17 -3 46 -11 65 -16 37 -11 207 -49 250 -56 24 -4 65 -11 105 -19
11 -2 52 -9 90 -15 64 -10 95 -15 180 -26 17 -2 50 -7 75 -11 94 -13 107 -14
170 -19 36 -2 76 -6 90 -9 26 -5 173 -15 300 -22 102 -5 477 -5 570 0 100 6
257 16 300 21 122 12 149 15 180 20 19 3 55 7 80 10 25 3 56 8 70 10 14 2 43
6 65 10 39 5 62 9 115 20 28 5 69 13 119 21 18 3 43 8 55 11 11 3 32 6 46 7
14 0 27 4 30 7 3 4 21 10 40 13 63 10 191 41 220 53 8 3 20 7 26 8 45 10 258
78 269 86 42 32 98 86 107 103 7 12 14 41 16 66 7 80 8 360 1 360 -3 0 -6 10
-6 23 1 12 -5 52 -12 89 -7 37 -12 69 -10 71 2 2 -1 10 -8 18 -7 8 -15 30 -18
49 -7 41 -91 217 -117 244 -10 11 -18 24 -18 28 0 5 -25 34 -55 65 -30 31 -55
60 -55 65 0 17 -119 127 -185 170 -112 73 -271 151 -439 214 -50 19 -98 37
-106 41 -8 3 -21 7 -28 9 -32 6 -181 70 -227 97 -96 56 -160 118 -169 163 -2
11 -12 48 -21 84 -27 102 -26 104 30 193 55 87 87 146 129 237 27 60 54 107
74 128 6 7 12 20 12 28 0 8 4 22 10 32 5 9 21 60 36 112 29 103 40 226 22 248
-9 10 -9 22 0 45 6 18 13 48 16 67 3 19 9 57 15 83 11 61 6 284 -7 318 -6 15
-8 29 -5 32 3 3 1 12 -3 19 -5 7 -9 18 -10 24 -3 18 -70 170 -107 243 -35 70
-127 171 -197 218 -42 27 -179 97 -245 124 -120 49 -370 71 -525 48z"/>
<path d="M6597 6484 c-2 -3 -80 -5 -172 -5 -156 0 -167 -1 -162 -18 2 -10 0
-26 -5 -35 -5 -9 -5 -16 0 -16 9 0 7 -94 -3 -110 -3 -5 -2 -10 2 -10 9 0 7
-205 -2 -227 -2 -7 -1 -13 4 -13 10 0 8 -40 -2 -57 -5 -7 -5 -13 0 -13 9 0 8
-144 -2 -160 -3 -5 -3 -10 2 -10 9 0 8 -321 -1 -345 -3 -8 -2 -15 2 -15 9 0 6
-95 -3 -110 -3 -5 -2 -10 2 -10 9 0 7 -205 -2 -227 -2 -7 -1 -13 4 -13 10 0 8
-40 -2 -57 -5 -7 -5 -13 0 -13 9 0 8 -144 -2 -160 -3 -5 -3 -10 2 -10 9 0 8
-321 -1 -345 -3 -8 -2 -15 2 -15 9 0 6 -95 -3 -110 -3 -5 -1 -10 4 -10 6 0 11
-5 11 -11 0 -11 -220 -119 -265 -129 -5 -1 -22 -11 -37 -21 -14 -10 -30 -19
-35 -19 -4 0 -39 -16 -78 -35 -38 -19 -76 -35 -82 -35 -7 0 -13 -5 -13 -11 0
-5 -4 -8 -9 -4 -5 3 -15 0 -23 -7 -7 -7 -20 -14 -27 -16 -8 -2 -60 -25 -115
-51 -56 -27 -132 -63 -171 -81 -124 -57 -198 -92 -285 -133 -47 -22 -87 -41
-90 -42 -45 -16 -70 -29 -70 -36 0 -5 -7 -9 -15 -9 -14 0 -102 -39 -260 -115
-38 -19 -101 -48 -140 -65 -38 -17 -77 -36 -85 -41 -8 -5 -22 -12 -30 -15 -48
-20 -110 -48 -110 -50 0 -5 39 -92 77 -174 85 -178 103 -219 103 -230 0 -5 4
-10 10 -10 5 0 9 -3 8 -7 -4 -15 47 -113 58 -113 6 0 65 26 130 57 66 31 121
57 124 58 3 0 27 11 54 23 27 12 52 22 57 22 5 0 9 3 9 8 0 4 21 16 48 26 26
11 94 42 152 69 110 51 220 103 305 142 28 13 141 66 252 118 111 52 204 92
207 89 3 -3 6 0 6 6 0 6 18 17 40 23 22 7 40 17 40 22 0 6 3 8 6 5 3 -3 46 14
95 38 84 41 157 75 169 79 3 0 55 25 115 54 61 29 115 53 120 54 6 1 12 5 15
9 12 15 38 11 90 -14 30 -14 70 -32 88 -39 17 -8 32 -17 32 -20 0 -3 6 -6 13
-6 6 0 55 -21 107 -46 141 -66 259 -121 315 -147 28 -13 102 -47 165 -77 63
-31 133 -63 155 -73 57 -25 170 -77 239 -111 33 -16 65 -29 72 -29 7 0 14 -4
16 -8 2 -4 32 -20 68 -36 58 -26 136 -62 337 -157 35 -17 64 -29 65 -29 2 0
54 -24 115 -55 62 -30 119 -55 125 -55 12 0 25 23 63 110 8 19 19 42 24 50 5
8 16 31 24 50 8 19 38 83 66 143 28 59 51 109 51 112 0 3 9 21 20 40 15 26 16
35 6 35 -12 0 -122 50 -219 100 -22 11 -45 20 -53 20 -8 0 -14 5 -14 10 0 6
-9 10 -20 10 -11 0 -20 5 -20 12 0 6 -3 9 -6 6 -3 -4 -36 9 -72 27 -100 49
-160 75 -171 75 -6 0 -11 5 -11 10 0 6 -5 10 -11 10 -10 0 -198 87 -529 242
-156 74 -251 118 -254 118 -2 0 -70 32 -152 71 -82 38 -171 81 -199 94 -104
49 -170 78 -180 79 -5 1 -10 9 -10 18 0 9 -3 19 -6 22 -6 7 -2 104 6 124 2 6
1 12 -4 12 -10 0 -8 40 2 58 5 6 5 12 0 12 -9 0 -8 144 2 160 3 5 2 10 -2 10
-10 0 -8 253 1 269 4 6 4 11 -1 11 -9 0 -9 361 0 385 4 8 3 15 -1 15 -9 0 -6
95 3 110 3 5 3 10 -2 10 -9 0 -8 243 1 266 3 8 2 14 -2 14 -9 0 -7 134 2 149
4 6 3 11 -1 11 -10 0 -8 94 2 110 3 5 2 10 -3 10 -11 0 -10 40 1 58 5 6 5 12
0 12 -9 0 -8 144 2 160 3 5 2 10 -3 10 -4 0 -8 26 -7 58 1 31 1 62 -1 67 -3 6
-33 9 -72 7 -84 -4 -164 -2 -172 3 -4 3 -10 2 -13 -1z"/>
<path d="M2035 6181 c-2 -1 -28 -5 -57 -7 -240 -16 -416 -85 -553 -219 -114
-110 -237 -319 -271 -457 -11 -48 -15 -66 -22 -103 -9 -43 -8 -228 1 -285 10
-63 24 -135 27 -135 6 0 12 -51 15 -115 4 -91 9 -125 34 -220 15 -61 29 -87
60 -116 16 -16 32 -40 35 -54 9 -52 86 -217 137 -296 36 -56 61 -144 41 -144
-4 0 -8 -14 -9 -32 -4 -48 -31 -123 -56 -151 -12 -13 -32 -37 -44 -53 -13 -15
-23 -25 -23 -21 0 4 -10 -1 -22 -13 -12 -11 -27 -20 -34 -20 -7 0 -14 -4 -16
-8 -4 -10 -225 -118 -258 -126 -3 -1 -15 -7 -27 -14 -13 -7 -23 -10 -23 -7 0
3 -15 -2 -32 -12 -18 -9 -39 -18 -46 -19 -8 -1 -21 -6 -30 -10 -9 -4 -19 -8
-22 -9 -3 -1 -12 -4 -20 -8 -8 -3 -51 -17 -95 -32 -197 -64 -324 -155 -411
-295 -70 -112 -146 -267 -195 -396 -21 -57 -39 -108 -39 -113 0 -6 -5 -22 -11
-38 -7 -15 -13 -37 -15 -48 -5 -30 -10 -48 -17 -70 -3 -11 -9 -33 -12 -50 -2
-16 -10 -56 -15 -87 -12 -66 -5 -175 14 -232 24 -71 55 -98 157 -138 100 -39
129 -50 142 -53 4 -2 9 -4 12 -5 3 -1 10 -4 15 -5 6 -1 11 -3 13 -4 1 -2 13
-4 26 -7 14 -2 30 -9 38 -15 7 -6 13 -9 13 -6 0 3 15 1 32 -4 54 -17 252 -67
289 -73 19 -3 45 -8 59 -11 14 -3 35 -8 48 -11 12 -2 34 -6 50 -10 15 -3 39
-7 55 -10 15 -2 42 -7 60 -10 17 -3 52 -8 77 -10 25 -3 52 -8 60 -11 8 -3 35
-7 60 -9 25 -2 63 -6 85 -9 65 -8 106 -13 180 -19 39 -4 84 -8 100 -11 144
-19 785 -27 960 -12 44 4 107 10 140 12 59 6 99 10 200 21 95 11 164 20 220
31 17 3 41 6 55 8 14 1 39 5 55 8 17 4 44 9 60 12 17 3 41 7 55 10 14 3 37 7
52 10 62 12 290 66 373 90 50 14 101 28 114 31 13 3 32 9 43 15 10 5 18 6 18
2 0 -4 5 -2 12 5 7 7 19 12 28 12 23 0 90 38 120 68 64 65 74 107 72 317 0
140 -6 200 -28 303 -3 15 -7 36 -9 47 -2 11 -4 21 -5 23 -2 1 -3 5 -5 10 -1 4
-5 16 -9 27 -56 156 -116 262 -191 340 -30 31 -55 60 -55 64 0 4 -13 21 -30
37 -16 16 -30 34 -30 39 0 6 -17 21 -38 35 -20 14 -43 31 -50 38 -40 37 -335
192 -367 192 -8 0 -15 4 -15 9 0 5 -10 11 -22 14 -36 8 -289 103 -344 128 -27
13 -51 22 -54 22 -3 -1 -37 20 -75 45 -100 68 -122 101 -151 223 -25 104 -24
134 5 156 9 7 12 13 6 13 -6 0 -5 3 1 8 25 16 144 232 144 260 0 5 18 36 40
70 22 33 40 63 40 66 0 3 5 17 12 33 6 15 12 31 13 36 2 4 4 9 5 12 3 5 3 6
15 50 4 17 10 34 13 40 4 5 7 16 7 25 1 8 7 41 14 73 12 53 11 84 -3 146 -3
14 1 50 9 80 7 31 17 76 20 101 4 25 9 47 11 49 2 2 -1 10 -7 18 -7 7 -7 13
-2 13 11 0 10 136 -2 215 -8 58 -48 178 -70 211 -8 13 -15 28 -15 33 0 36 -79
168 -139 234 -77 84 -332 220 -456 243 -22 4 -47 9 -55 10 -8 2 -35 6 -59 9
-25 3 -48 8 -53 11 -4 3 -8 1 -8 -5 0 -6 -7 -8 -15 -5 -17 7 -125 11 -130 5z"/>
<path d="M10980 6180 c0 -3 -19 -5 -42 -4 -37 0 -125 -12 -208 -29 -68 -14
-161 -50 -214 -82 -32 -19 -61 -35 -63 -35 -9 0 -100 -87 -143 -136 -37 -42
-90 -121 -90 -133 0 -6 -4 -11 -8 -11 -6 0 -62 -107 -67 -130 -1 -3 -7 -18
-14 -35 -26 -62 -52 -150 -57 -195 -5 -44 -4 -244 1 -270 3 -14 8 -41 11 -60
8 -46 9 -48 23 -97 6 -23 11 -66 10 -95 -1 -49 6 -111 16 -148 3 -8 7 -33 11
-55 3 -22 10 -44 15 -49 5 -6 9 -18 9 -27 0 -10 16 -34 34 -54 19 -20 43 -60
52 -88 9 -29 31 -81 47 -117 17 -36 30 -68 29 -72 -1 -5 1 -8 6 -8 4 0 13 -15
21 -32 8 -18 17 -35 20 -38 19 -16 45 -70 48 -100 5 -42 -23 -162 -49 -210
-10 -19 -18 -30 -18 -25 0 6 -9 -4 -19 -21 -25 -41 -200 -154 -238 -154 -7 0
-13 -4 -13 -10 0 -5 -5 -10 -12 -10 -6 0 -36 -12 -66 -26 -31 -15 -60 -27 -66
-28 -6 -1 -21 -8 -33 -14 -13 -7 -23 -10 -23 -6 0 3 -6 2 -12 -3 -7 -6 -49
-22 -93 -38 -44 -15 -87 -30 -95 -33 -8 -3 -18 -6 -22 -7 -5 -2 -9 -3 -10 -4
-2 -2 -13 -4 -25 -7 -31 -5 -160 -69 -179 -88 -8 -9 -21 -16 -28 -16 -6 0 -18
-9 -26 -20 -8 -11 -18 -20 -23 -20 -14 0 -61 -51 -93 -100 -16 -25 -31 -47
-34 -50 -6 -6 -58 -103 -75 -137 -5 -13 -13 -23 -17 -23 -5 0 -8 -6 -8 -13 0
-8 -13 -41 -30 -75 -16 -34 -30 -65 -30 -68 0 -3 -6 -20 -14 -37 -29 -68 -57
-158 -51 -167 3 -6 2 -10 -4 -10 -5 0 -18 -39 -30 -87 -51 -222 -54 -262 -26
-397 8 -38 62 -116 80 -116 4 0 21 -6 38 -14 40 -19 179 -70 232 -87 22 -6 47
-14 55 -17 8 -3 21 -6 28 -8 8 -1 21 -6 30 -10 9 -4 24 -8 32 -9 8 -2 80 -18
160 -38 80 -19 152 -35 160 -35 8 -1 47 -8 85 -16 39 -8 90 -17 115 -21 25 -4
54 -8 65 -10 119 -20 274 -39 405 -51 30 -2 75 -6 100 -8 180 -17 271 -20 540
-20 274 0 436 5 555 19 22 3 63 7 90 10 28 3 70 8 95 11 25 3 59 7 75 9 49 5
118 15 145 20 14 3 44 7 68 10 24 3 64 10 90 16 26 6 64 13 85 15 21 3 49 9
63 14 14 6 28 9 32 8 6 -1 40 5 92 17 3 1 23 6 45 13 22 6 51 13 65 16 14 3
52 12 85 21 33 9 65 18 70 19 6 1 35 10 65 19 30 9 58 15 61 14 3 -1 13 4 22
12 10 7 17 10 17 6 0 -4 7 -2 15 5 8 7 15 10 15 6 0 -15 69 30 114 75 58 58
60 69 61 289 0 149 -8 245 -25 315 -6 22 -13 49 -15 59 -4 17 -19 69 -31 106
-3 8 -5 16 -5 17 0 2 -18 38 -40 80 -39 75 -123 194 -142 202 -5 2 -28 30 -52
62 -39 52 -67 80 -151 147 -59 48 -379 207 -438 219 -11 2 -25 8 -33 14 -7 6
-13 8 -13 4 0 -4 -10 -1 -23 8 -12 8 -38 18 -57 22 -19 4 -44 12 -55 18 -11 6
-25 12 -32 13 -7 1 -38 14 -69 28 -31 14 -62 26 -69 26 -8 0 -15 4 -17 8 -1 4
-23 20 -48 34 -88 52 -132 103 -150 178 -6 25 -12 52 -14 60 -26 100 -27 94
26 176 61 94 108 180 108 198 0 7 7 19 15 26 8 7 15 23 15 36 0 13 6 27 13 31
6 4 18 18 25 31 6 12 16 30 22 40 19 34 50 111 54 134 3 13 5 23 6 23 1 0 4
13 6 30 3 16 9 34 14 40 9 11 19 69 24 140 1 17 -4 43 -10 59 -8 20 -9 39 -2
60 9 31 18 75 23 111 1 11 3 20 5 20 5 0 14 194 10 205 -1 3 -3 25 -5 50 -2
25 -4 47 -5 50 -1 3 -2 8 -1 12 2 15 -42 145 -62 183 -11 22 -22 45 -23 50 -6
36 -79 165 -96 173 -5 2 -8 8 -8 13 0 15 -114 119 -130 119 -5 0 -10 5 -10 10
0 6 -6 10 -14 10 -8 0 -16 3 -18 8 -4 9 -216 113 -241 118 -10 2 -27 6 -37 9
-10 3 -28 8 -39 10 -12 3 -31 7 -43 10 -51 13 -278 25 -278 15z"/>
</g>
</svg>
